<svg xmlns="http://www.w3.org/2000/svg" viewBox="0 0 512 512" width="512" height="512">
  <defs>
    <linearGradient id="bg" x1="0%" y1="0%" x2="100%" y2="100%">
      <stop offset="0%" stop-color="#1a73e8"/>
      <stop offset="100%" stop-color="#0d47a1"/>
    </linearGradient>
  </defs>
  <rect width="512" height="512" rx="80" fill="url(#bg)"/>
  <g transform="translate(256,256)">
    <path d="M-120,-60 Q0,-140 120,-60 Q160,-30 160,20 Q160,90 80,130 Q40,150 0,150 Q-40,150 -80,130 Q-160,90 -160,20 Q-160,-30 -120,-60Z" fill="white" opacity="0.95"/>
    <path d="M-60,-30 Q0,-70 60,-30 L60,0 Q0,-20 -60,0Z" fill="#1a73e8" opacity="0.7"/>
    <circle cx="0" cy="30" r="35" fill="none" stroke="#1a73e8" stroke-width="4"/>
    <circle cx="0" cy="30" r="8" fill="#1a73e8"/>
    <circle cx="-80" cy="60" r="6" fill="#1a73e8" opacity="0.6"/>
    <circle cx="80" cy="60" r="6" fill="#1a73e8" opacity="0.6"/>
    <circle cx="0" cy="120" r="6" fill="#1a73e8" opacity="0.6"/>
    <line x1="0" y1="65" x2="-80" y2="60" stroke="#1a73e8" stroke-width="1.5" opacity="0.4"/>
    <line x1="0" y1="65" x2="80" y2="60" stroke="#1a73e8" stroke-width="1.5" opacity="0.4"/>
    <line x1="0" y1="65" x2="0" y2="120" stroke="#1a73e8" stroke-width="1.5" opacity="0.4"/>
  </g>
</svg>
